<svg xmlns="http://www.w3.org/2000/svg">
    <defs>
        <svg id="delivery-icon" viewBox="0 0 26 23">
            <path d="M24.7965 5.24336L16.0465 0.66003C15.9173 0.592335 15.7722 0.556839 15.6247 0.556839C15.4773 0.556839 15.3322 0.592335 15.203 0.66003L6.45298 5.24336C6.31579 5.3153 6.20139 5.42099 6.12171 5.54939C6.04203 5.6778 6 5.82421 6 5.97336C6 6.12251 6.04203 6.26893 6.12171 6.39734C6.20139 6.52574 6.31579 6.63143 6.45298 6.70336L14.7497 11.0492V19.9817L12.0932 18.59L11.2497 20.0492L15.203 22.12C15.3321 22.1879 15.4772 22.2235 15.6247 22.2235C15.7722 22.2235 15.9173 22.1879 16.0465 22.12L24.7965 17.5367C24.9337 17.4648 25.0482 17.3591 25.1279 17.2307C25.2076 17.1023 25.2497 16.9559 25.2497 16.8067V5.97336C25.2497 5.82419 25.2076 5.67775 25.1279 5.54934C25.0482 5.42094 24.9337 5.31527 24.7965 5.24336ZM15.6247 2.3417L22.5591 5.97336L15.6247 9.60503L8.69035 5.97336L15.6247 2.3417ZM23.4997 16.3142L16.4997 19.9809V11.0484L23.4997 7.3817V16.3142Z"/>
            <path d="M7.75 11.3905H0.75V9.72383H7.75V11.3905ZM9.5 18.0572H2.5V16.3905H9.5V18.0572ZM11.25 14.7238H4.25V13.0572H11.25V14.7238Z"/>
        </svg>
        <symbol id="location-icon" viewBox="0 0 19 25">
            <path d="M9.50033 12.3997C10.142 12.3997 10.6915 12.171 11.1488 11.7137C11.6054 11.2571 11.8337 10.708 11.8337 10.0663C11.8337 9.42467 11.6054 8.87517 11.1488 8.41784C10.6915 7.96128 10.142 7.733 9.50033 7.733C8.85866 7.733 8.30955 7.96128 7.85299 8.41784C7.39566 8.87517 7.16699 9.42467 7.16699 10.0663C7.16699 10.708 7.39566 11.2571 7.85299 11.7137C8.30955 12.171 8.85866 12.3997 9.50033 12.3997ZM9.50033 24.0663C6.36977 21.4024 4.03177 18.9279 2.48633 16.6428C0.940103 14.3585 0.166992 12.2441 0.166992 10.2997C0.166992 7.383 1.10538 5.05939 2.98216 3.32884C4.85816 1.59828 7.03088 0.733002 9.50033 0.733002C11.9698 0.733002 14.1425 1.59828 16.0185 3.32884C17.8953 5.05939 18.8337 7.383 18.8337 10.2997C18.8337 12.2441 18.0609 14.3585 16.5155 16.6428C14.9693 18.9279 12.6309 21.4024 9.50033 24.0663Z"/>
        </symbol>
        <symbol id="dashboard-icon" viewBox="0 0 21 22">
            <path d="M11.6667 6.33333V1.66667C11.6667 1.33611 11.7787 1.05883 12.0027 0.834833C12.2259 0.611611 12.5028 0.5 12.8333 0.5H19.8333C20.1639 0.5 20.4408 0.611611 20.664 0.834833C20.888 1.05883 21 1.33611 21 1.66667V6.33333C21 6.66389 20.888 6.94078 20.664 7.164C20.4408 7.388 20.1639 7.5 19.8333 7.5H12.8333C12.5028 7.5 12.2259 7.388 12.0027 7.164C11.7787 6.94078 11.6667 6.66389 11.6667 6.33333ZM0 11V1.66667C0 1.33611 0.112 1.05883 0.336 0.834833C0.559222 0.611611 0.836111 0.5 1.16667 0.5H8.16667C8.49722 0.5 8.7745 0.611611 8.9985 0.834833C9.22172 1.05883 9.33333 1.33611 9.33333 1.66667V11C9.33333 11.3306 9.22172 11.6074 8.9985 11.8307C8.7745 12.0547 8.49722 12.1667 8.16667 12.1667H1.16667C0.836111 12.1667 0.559222 12.0547 0.336 11.8307C0.112 11.6074 0 11.3306 0 11ZM11.6667 20.3333V11C11.6667 10.6694 11.7787 10.3922 12.0027 10.1682C12.2259 9.94494 12.5028 9.83333 12.8333 9.83333H19.8333C20.1639 9.83333 20.4408 9.94494 20.664 10.1682C20.888 10.3922 21 10.6694 21 11V20.3333C21 20.6639 20.888 20.9408 20.664 21.164C20.4408 21.388 20.1639 21.5 19.8333 21.5H12.8333C12.5028 21.5 12.2259 21.388 12.0027 21.164C11.7787 20.9408 11.6667 20.6639 11.6667 20.3333ZM0 20.3333V15.6667C0 15.3361 0.112 15.0588 0.336 14.8348C0.559222 14.6116 0.836111 14.5 1.16667 14.5H8.16667C8.49722 14.5 8.7745 14.6116 8.9985 14.8348C9.22172 15.0588 9.33333 15.3361 9.33333 15.6667V20.3333C9.33333 20.6639 9.22172 20.9408 8.9985 21.164C8.7745 21.388 8.49722 21.5 8.16667 21.5H1.16667C0.836111 21.5 0.559222 21.388 0.336 21.164C0.112 20.9408 0 20.6639 0 20.3333ZM2.33333 9.83333H7V2.83333H2.33333V9.83333ZM14 19.1667H18.6667V12.1667H14V19.1667ZM14 5.16667H18.6667V2.83333H14V5.16667ZM2.33333 19.1667H7V16.8333H2.33333V19.1667Z"/>
        </symbol>
        <symbol id="car-icon" viewBox="0 0 21 19">
            <path d="M3.5 16.3664V17.533C3.5 17.8636 3.38839 18.1405 3.16517 18.3637C2.94117 18.5877 2.66389 18.6997 2.33333 18.6997H1.16667C0.836111 18.6997 0.559222 18.5877 0.336 18.3637C0.112 18.1405 0 17.8636 0 17.533V8.19969L2.45 1.19969C2.56667 0.849687 2.77589 0.567742 3.07767 0.353853C3.37867 0.139965 3.71389 0.03302 4.08333 0.03302H16.9167C17.2861 0.03302 17.6217 0.139965 17.9235 0.353853C18.2245 0.567742 18.4333 0.849687 18.55 1.19969L21 8.19969V17.533C21 17.8636 20.888 18.1405 20.664 18.3637C20.4408 18.5877 20.1639 18.6997 19.8333 18.6997H18.6667C18.3361 18.6997 18.0592 18.5877 17.836 18.3637C17.612 18.1405 17.5 17.8636 17.5 17.533V16.3664H3.5ZM3.26667 5.86635H17.7333L16.5083 2.36635H4.49167L3.26667 5.86635ZM5.25 12.8664C5.73611 12.8664 6.14911 12.696 6.489 12.3554C6.82967 12.0155 7 11.6025 7 11.1164C7 10.6302 6.82967 10.2172 6.489 9.87735C6.14911 9.53669 5.73611 9.36635 5.25 9.36635C4.76389 9.36635 4.35089 9.53669 4.011 9.87735C3.67033 10.2172 3.5 10.6302 3.5 11.1164C3.5 11.6025 3.67033 12.0155 4.011 12.3554C4.35089 12.696 4.76389 12.8664 5.25 12.8664ZM15.75 12.8664C16.2361 12.8664 16.6491 12.696 16.989 12.3554C17.3297 12.0155 17.5 11.6025 17.5 11.1164C17.5 10.6302 17.3297 10.2172 16.989 9.87735C16.6491 9.53669 16.2361 9.36635 15.75 9.36635C15.2639 9.36635 14.8509 9.53669 14.511 9.87735C14.1703 10.2172 14 10.6302 14 11.1164C14 11.6025 14.1703 12.0155 14.511 12.3554C14.8509 12.696 15.2639 12.8664 15.75 12.8664ZM2.33333 14.033H18.6667V8.19969H2.33333V14.033Z"/>
        </symbol>
        <symbol id="person-icon" viewBox="0 0 19 20">
            <path d="M9.50033 9.99975C8.21699 9.99975 7.11838 9.5428 6.20449 8.62891C5.2906 7.71502 4.83366 6.61641 4.83366 5.33308C4.83366 4.04975 5.2906 2.95113 6.20449 2.03725C7.11838 1.12336 8.21699 0.666412 9.50033 0.666412C10.7837 0.666412 11.8823 1.12336 12.7962 2.03725C13.71 2.95113 14.167 4.04975 14.167 5.33308C14.167 6.61641 13.71 7.71502 12.7962 8.62891C11.8823 9.5428 10.7837 9.99975 9.50033 9.99975ZM1.33366 19.3331C1.0031 19.3331 0.726214 19.2211 0.502992 18.9971C0.278992 18.7739 0.166992 18.497 0.166992 18.1664V16.0664C0.166992 15.4053 0.337325 14.7975 0.677992 14.2429C1.01788 13.6891 1.46977 13.2664 2.03366 12.9747C3.23921 12.372 4.46421 11.9197 5.70866 11.6179C6.9531 11.3169 8.21699 11.1664 9.50033 11.1664C10.7837 11.1664 12.0475 11.3169 13.292 11.6179C14.5364 11.9197 15.7614 12.372 16.967 12.9747C17.5309 13.2664 17.9828 13.6891 18.3227 14.2429C18.6633 14.7975 18.8337 15.4053 18.8337 16.0664V18.1664C18.8337 18.497 18.7217 18.7739 18.4977 18.9971C18.2744 19.2211 17.9975 19.3331 17.667 19.3331H1.33366ZM2.50033 16.9997H16.5003V16.0664C16.5003 15.8525 16.447 15.6581 16.3405 15.4831C16.2332 15.3081 16.092 15.172 15.917 15.0747C14.867 14.5497 13.8073 14.1558 12.7378 13.8929C11.6684 13.6308 10.5892 13.4997 9.50033 13.4997C8.41144 13.4997 7.33227 13.6308 6.26283 13.8929C5.19338 14.1558 4.13366 14.5497 3.08366 15.0747C2.90866 15.172 2.76788 15.3081 2.66133 15.4831C2.55399 15.6581 2.50033 15.8525 2.50033 16.0664V16.9997ZM9.50033 7.66641C10.142 7.66641 10.6915 7.43775 11.1488 6.98041C11.6054 6.52386 11.8337 5.97475 11.8337 5.33308C11.8337 4.69141 11.6054 4.1423 11.1488 3.68575C10.6915 3.22841 10.142 2.99975 9.50033 2.99975C8.85866 2.99975 8.30955 3.22841 7.85299 3.68575C7.39566 4.1423 7.16699 4.69141 7.16699 5.33308C7.16699 5.97475 7.39566 6.52386 7.85299 6.98041C8.30955 7.43775 8.85866 7.66641 9.50033 7.66641Z"/>
        </symbol>
        <symbol id="settings-icon" viewBox="0 0 25 26">
            <path d="M12.5004 6.87543C11.289 6.87543 10.1048 7.23466 9.09756 7.90768C8.09031 8.5807 7.30526 9.5373 6.84167 10.6565C6.37808 11.7757 6.25679 13.0072 6.49312 14.1954C6.72946 15.3835 7.31281 16.4749 8.1694 17.3315C9.026 18.1881 10.1174 18.7714 11.3055 19.0077C12.4936 19.2441 13.7252 19.1228 14.8444 18.6592C15.9636 18.1956 16.9202 17.4106 17.5932 16.4033C18.2662 15.396 18.6254 14.2118 18.6254 13.0004C18.6254 11.376 17.9801 9.81806 16.8315 8.6694C15.6828 7.52074 14.1249 6.87543 12.5004 6.87543ZM12.5004 16.5004C11.8082 16.5004 11.1315 16.2952 10.5559 15.9106C9.98036 15.526 9.53176 14.9794 9.26685 14.3398C9.00195 13.7003 8.93264 12.9966 9.06768 12.3176C9.20273 11.6387 9.53607 11.015 10.0256 10.5256C10.515 10.0361 11.1387 9.70273 11.8176 9.56768C12.4965 9.43264 13.2003 9.50195 13.8398 9.76685C14.4794 10.0318 15.026 10.4804 15.4106 11.0559C15.7952 11.6315 16.0004 12.3082 16.0004 13.0004C15.9975 13.9278 15.6279 14.8164 14.9721 15.4721C14.3164 16.1279 13.4278 16.4975 12.5004 16.5004ZM24.5317 15.1879L22.9895 13.1317V12.8692L24.5317 10.8129C24.649 10.6529 24.7294 10.4689 24.7672 10.2741C24.805 10.0794 24.7993 9.87866 24.7504 9.68637C24.4679 8.6371 24.0487 7.62952 23.5036 6.6895C23.4056 6.51571 23.2687 6.36699 23.1036 6.25503C22.9385 6.14306 22.7497 6.07089 22.552 6.04418L20.0254 5.68324L19.8176 5.47543L19.4567 2.94887C19.43 2.75118 19.3578 2.56236 19.2458 2.39726C19.1339 2.23216 18.9852 2.09526 18.8114 1.99731C17.8713 1.4522 16.8638 1.03298 15.8145 0.750432C15.6225 0.698373 15.4211 0.691021 15.2258 0.728942C15.0305 0.766864 14.8465 0.849048 14.6879 0.969182L12.6426 2.50043H12.3582L10.3129 0.969182C10.1529 0.851905 9.96891 0.771475 9.77415 0.733657C9.57938 0.695838 9.37866 0.701567 9.18637 0.750432C8.1371 1.03298 7.12952 1.4522 6.1895 1.99731C6.01571 2.09526 5.86699 2.23216 5.75502 2.39726C5.64306 2.56236 5.57089 2.75118 5.54418 2.94887L5.18324 5.47543C5.1086 5.53911 5.03911 5.6086 4.97543 5.68324L2.44887 6.04418C2.25118 6.07089 2.06236 6.14306 1.89726 6.25503C1.73216 6.36699 1.59526 6.51571 1.49731 6.6895C0.952198 7.62952 0.532984 8.6371 0.250432 9.68637C0.198373 9.87838 0.191021 10.0798 0.228942 10.2751C0.266864 10.4704 0.349048 10.6544 0.469182 10.8129L2.01137 12.8692V13.1317L0.469182 15.1879C0.351905 15.348 0.271475 15.532 0.233657 15.7267C0.195838 15.9215 0.201567 16.1222 0.250432 16.3145C0.532984 17.3638 0.952198 18.3713 1.49731 19.3114C1.59526 19.4852 1.73216 19.6339 1.89726 19.7458C2.06236 19.8578 2.25118 19.93 2.44887 19.9567L4.97543 20.3176L5.18324 20.5254L5.54418 23.052C5.57089 23.2497 5.64306 23.4385 5.75502 23.6036C5.86699 23.7687 6.01571 23.9056 6.1895 24.0036C7.12952 24.5487 8.1371 24.9679 9.18637 25.2504C9.29661 25.2817 9.41087 25.2964 9.52543 25.2942C9.80968 25.2958 10.0865 25.2035 10.3129 25.0317L12.3582 23.5004H12.6426L14.6879 25.0317C14.848 25.149 15.032 25.2294 15.2267 25.2672C15.4215 25.305 15.6222 25.2993 15.8145 25.2504C16.8638 24.9679 17.8713 24.5487 18.8114 24.0036C18.9852 23.9056 19.1339 23.7687 19.2458 23.6036C19.3578 23.4385 19.43 23.2497 19.4567 23.052L19.8286 20.5145L20.0145 20.3286L22.552 19.9567C22.7497 19.93 22.9385 19.8578 23.1036 19.7458C23.2687 19.6339 23.4056 19.4852 23.5036 19.3114C24.0487 18.3713 24.4679 17.3638 24.7504 16.3145C24.8025 16.1225 24.8098 15.9211 24.7719 15.7258C24.734 15.5305 24.6518 15.3465 24.5317 15.1879ZM21.5239 17.452L19.1942 17.7911C18.9025 17.8341 18.6332 17.9726 18.4286 18.1848C18.2426 18.3817 17.8926 18.7426 17.7176 18.8957C17.4867 19.1041 17.3359 19.3865 17.2911 19.6942L16.952 22.0239C16.5564 22.2241 16.147 22.3959 15.727 22.5379L13.8457 21.1161C13.5977 20.9304 13.2907 20.841 12.9817 20.8645H12.0192C11.7104 20.8429 11.4041 20.9321 11.1551 21.1161L9.27387 22.5379C8.85384 22.3959 8.44447 22.2241 8.04887 22.0239L7.70981 19.6942C7.665 19.3865 7.51412 19.1041 7.28325 18.8957C7.0411 18.6864 6.81446 18.4598 6.60512 18.2176C6.39681 17.9867 6.1144 17.8359 5.80668 17.7911L3.47699 17.452C3.27675 17.0564 3.10496 16.647 2.96293 16.227L4.38481 14.3457C4.55911 14.1081 4.65126 13.8201 4.64731 13.5254C4.63637 13.252 4.62543 12.7489 4.63637 12.5192C4.65792 12.2104 4.56873 11.9041 4.38481 11.6551L2.96293 9.77387C3.10496 9.35384 3.27675 8.94447 3.47699 8.54887L5.80668 8.20981C6.1144 8.165 6.39681 8.01412 6.60512 7.78325C6.81446 7.5411 7.0411 7.31446 7.28325 7.10512C7.51412 6.89681 7.665 6.6144 7.70981 6.30668L8.04887 3.97699C8.44447 3.77675 8.85384 3.60496 9.27387 3.46293L11.1551 4.88481C11.4032 5.07051 11.7102 5.1599 12.0192 5.13637C12.3364 5.12543 12.6645 5.12543 12.9817 5.13637C13.2907 5.1599 13.5977 5.07051 13.8457 4.88481L15.727 3.46293C16.147 3.60496 16.5564 3.77675 16.952 3.97699L17.2911 6.30668C17.3359 6.6144 17.4867 6.89681 17.7176 7.10512C17.9598 7.31446 18.1864 7.5411 18.3957 7.78325C18.6041 8.01412 18.8865 8.165 19.1942 8.20981L21.5239 8.54887C21.7241 8.94447 21.8959 9.35384 22.0379 9.77387L20.6161 11.6551C20.4403 11.8915 20.3514 12.1812 20.3645 12.4754C20.3645 12.7489 20.3754 13.252 20.3645 13.4817C20.341 13.7907 20.4304 14.0977 20.6161 14.3457L22.0379 16.227C21.8959 16.647 21.7241 17.0564 21.5239 17.452Z"/>
        </symbol>
        <symbol id="clock" viewBox="0 0 20 21" fill="none" xmlns="http://www.w3.org/2000/svg">
            <path d="M11 11.1734L13.25 13.4234C13.4333 13.6067 13.525 13.836 13.525 14.1114C13.525 14.386 13.4333 14.6234 13.25 14.8234C13.05 15.0234 12.8127 15.1234 12.538 15.1234C12.2627 15.1234 12.025 15.0234 11.825 14.8234L9.7 12.6984C9.4667 12.465 9.2917 12.2067 9.175 11.9234C9.0583 11.64 9 11.3317 9 10.9984V7.99835C9 7.71502 9.096 7.47735 9.288 7.28535C9.4793 7.09402 9.7167 6.99835 10 6.99835C10.2833 6.99835 10.521 7.09402 10.713 7.28535C10.9043 7.47735 11 7.71502 11 7.99835V11.1734ZM10 2.99835C10.2833 2.99835 10.521 3.09402 10.713 3.28535C10.9043 3.47735 11 3.71502 11 3.99835C11 4.28169 10.9043 4.51935 10.713 4.71135C10.521 4.90269 10.2833 4.99835 10 4.99835C9.7167 4.99835 9.4793 4.90269 9.288 4.71135C9.096 4.51935 9 4.28169 9 3.99835C9 3.71502 9.096 3.47735 9.288 3.28535C9.4793 3.09402 9.7167 2.99835 10 2.99835ZM18 10.9984C18 11.2817 17.904 11.519 17.712 11.7104C17.5207 11.9024 17.2833 11.9984 17 11.9984C16.7167 11.9984 16.4793 11.9024 16.288 11.7104C16.096 11.519 16 11.2817 16 10.9984C16 10.715 16.096 10.4774 16.288 10.2854C16.4793 10.094 16.7167 9.9984 17 9.9984C17.2833 9.9984 17.5207 10.094 17.712 10.2854C17.904 10.4774 18 10.715 18 10.9984ZM10 16.9984C10.2833 16.9984 10.521 17.0944 10.713 17.2864C10.9043 17.4777 11 17.715 11 17.9984C11 18.2817 10.9043 18.519 10.713 18.7104C10.521 18.9024 10.2833 18.9984 10 18.9984C9.7167 18.9984 9.4793 18.9024 9.288 18.7104C9.096 18.519 9 18.2817 9 17.9984C9 17.715 9.096 17.4777 9.288 17.2864C9.4793 17.0944 9.7167 16.9984 10 16.9984ZM4 10.9984C4 11.2817 3.90433 11.519 3.713 11.7104C3.521 11.9024 3.28333 11.9984 3 11.9984C2.71667 11.9984 2.479 11.9024 2.287 11.7104C2.09567 11.519 2 11.2817 2 10.9984C2 10.715 2.09567 10.4774 2.287 10.2854C2.479 10.094 2.71667 9.9984 3 9.9984C3.28333 9.9984 3.521 10.094 3.713 10.2854C3.90433 10.4774 4 10.715 4 10.9984ZM10 20.9984C8.6167 20.9984 7.31667 20.7357 6.1 20.2104C4.88333 19.6857 3.825 18.9734 2.925 18.0734C2.025 17.1734 1.31267 16.115 0.788 14.8984C0.26267 13.6817 0 12.3817 0 10.9984C0 9.615 0.26267 8.315 0.788 7.09835C1.31267 5.88169 2.025 4.82335 2.925 3.92335C3.825 3.02335 4.88333 2.31069 6.1 1.78535C7.31667 1.26069 8.6167 0.998352 10 0.998352C11.3833 0.998352 12.6833 1.26069 13.9 1.78535C15.1167 2.31069 16.175 3.02335 17.075 3.92335C17.975 4.82335 18.6873 5.88169 19.212 7.09835C19.7373 8.315 20 9.615 20 10.9984C20 12.3817 19.7373 13.6817 19.212 14.8984C18.6873 16.115 17.975 17.1734 17.075 18.0734C16.175 18.9734 15.1167 19.6857 13.9 20.2104C12.6833 20.7357 11.3833 20.9984 10 20.9984ZM10 18.9984C12.2333 18.9984 14.125 18.2234 15.675 16.6734C17.225 15.1234 18 13.2317 18 10.9984C18 8.765 17.225 6.87335 15.675 5.32335C14.125 3.77335 12.2333 2.99835 10 2.99835C7.76667 2.99835 5.875 3.77335 4.325 5.32335C2.775 6.87335 2 8.765 2 10.9984C2 13.2317 2.775 15.1234 4.325 16.6734C5.875 18.2234 7.76667 18.9984 10 18.9984Z" fill="#111111"/>
        </symbol>
        <symbol id="path" viewBox="0 0 24 24" fill="none" xmlns="http://www.w3.org/2000/svg">
            <path d="M4.34061 0.980682C2.84061 0.980682 1.33874 2.10568 1.33874 4.35568L4.34061 10.3557L7.34061 4.35568C7.34061 2.10568 5.84061 0.980682 4.34061 0.980682ZM17.5734 2.80881C17.25 2.8224 16.9359 2.88381 16.6734 2.94006L16.8516 3.76506C17.1141 3.70646 17.3859 3.66943 17.6156 3.65256L17.5734 2.80881ZM4.34061 2.85568C5.1703 2.85568 5.84061 3.5274 5.84061 4.35568C5.84061 5.18537 5.1703 5.85568 4.34061 5.85568C3.51233 5.85568 2.84061 5.18537 2.84061 4.35568C2.84061 3.5274 3.51233 2.85568 4.34061 2.85568ZM18.5062 2.86506L18.3656 3.69475C18.5953 3.74303 18.825 3.80349 19.0266 3.92443L19.4344 3.18381C19.1484 3.03146 18.8297 2.89459 18.5062 2.86506ZM15.8109 3.17912C15.525 3.29068 15.2391 3.39053 14.9953 3.48849L15.3281 4.26193C15.5859 4.15224 15.8578 4.05662 16.0875 3.976L15.8109 3.17912ZM20.2031 3.80725L19.5609 4.35568C19.7297 4.54881 19.8609 4.78693 19.9641 4.97912L20.7187 4.59943C20.5594 4.2924 20.4187 4.0599 20.2031 3.80725ZM14.2125 3.84943C13.9266 3.99521 13.6922 4.12506 13.4391 4.25256L13.8516 4.99318C14.0953 4.85256 14.3625 4.71662 14.5781 4.60881L14.2125 3.84943ZM12.6984 4.68849C12.45 4.83381 12.2062 4.97912 11.9672 5.13849L12.4266 5.84162C12.6562 5.69162 12.8953 5.55099 13.1297 5.41037L12.6984 4.68849ZM21.0094 5.52756C20.7328 5.57443 20.4516 5.60724 20.175 5.64006C20.1937 5.87443 20.1797 6.12756 20.1328 6.32443L20.9531 6.51662C21 6.17912 21.0422 5.83224 21.0094 5.52756ZM11.2547 5.60724C11.0203 5.76662 10.7906 5.93068 10.5562 6.09006L11.0437 6.77912C11.2687 6.61506 11.4984 6.46037 11.7281 6.30099L11.2547 5.60724ZM9.86718 6.59631C9.6328 6.76506 9.38905 6.95256 9.18749 7.10724L9.69843 7.77756C9.95624 7.59006 10.1344 7.44943 10.3687 7.276L9.86718 6.59631ZM19.8516 6.97131C19.7109 7.18693 19.5469 7.40256 19.3828 7.56662L19.9969 8.15256C20.1984 7.9135 20.4141 7.66974 20.5641 7.42599L19.8516 6.97131ZM8.51718 7.63224C8.28749 7.81037 8.0578 7.99318 7.85624 8.16193L8.39061 8.8135C8.61093 8.63068 8.83593 8.44318 9.04218 8.29318L8.51718 7.63224ZM18.8016 8.10568C18.5859 8.27912 18.3609 8.44787 18.1547 8.5885L18.6375 9.2822C18.8859 9.1135 19.1297 8.93068 19.3406 8.76193L18.8016 8.10568ZM7.20468 8.71037C6.98436 8.88849 6.77343 9.076 6.5578 9.2588L7.10624 9.901C7.31718 9.7182 7.52811 9.5354 7.74374 9.3572L7.20468 8.71037ZM17.4656 9.0385C17.2266 9.1791 16.9781 9.3244 16.7531 9.4463L17.1562 10.1916C17.4094 10.0369 17.6953 9.901 17.9062 9.7604L17.4656 9.0385ZM5.91561 9.8166C5.70468 10.0041 5.49843 10.1916 5.28749 10.3838L5.85468 11.0119C6.06093 10.8244 6.27186 10.6369 6.47811 10.4494L5.91561 9.8166ZM16.0172 9.8354C15.7687 9.9572 15.5203 10.0838 15.2719 10.2057L15.6328 10.9651C15.9234 10.8244 16.1391 10.7072 16.4016 10.5854L16.0172 9.8354ZM14.5172 10.5572C14.2594 10.6744 14.0109 10.7869 13.7484 10.8947L14.0906 11.6682C14.3484 11.5557 14.6062 11.4385 14.8641 11.3213L14.5172 10.5572ZM4.66874 10.9651C4.42968 11.176 4.26327 11.3401 4.0453 11.551L4.64061 12.1604C4.86093 11.9494 5.03905 11.7666 5.2453 11.5885L4.66874 10.9651ZM12.9797 11.2369C12.7219 11.3447 12.4641 11.4572 12.2062 11.5651L12.5344 12.3479C12.7969 12.2401 13.0547 12.1276 13.3125 12.0151L12.9797 11.2369ZM11.4281 11.8932C11.1703 12.0057 10.9125 12.1182 10.65 12.2213L10.9781 13.0041C11.2359 12.8963 11.4984 12.7838 11.7562 12.676L11.4281 11.8932ZM20.0906 12.2307C18.5906 12.2307 17.0906 13.3557 17.0906 15.6057L20.0906 21.6057L23.0906 15.6057C23.0906 13.3557 21.5906 12.2307 20.0906 12.2307ZM9.87186 12.5494C9.60468 12.6713 9.32343 12.7838 9.09374 12.8822L9.42655 13.6604C9.70311 13.5432 9.96561 13.4307 10.2 13.3276L9.87186 12.5494ZM8.31561 13.2151C8.06249 13.3322 7.76718 13.4635 7.54218 13.5666L7.88905 14.3354C8.16561 14.2135 8.40936 14.0916 8.65311 13.9885L8.31561 13.2151ZM6.76874 13.9182C6.50624 14.0447 6.23436 14.176 5.99999 14.2932L6.37968 15.0479C6.6328 14.9166 6.8953 14.7947 7.12499 14.6822L6.76874 13.9182ZM20.0906 14.1057C20.9203 14.1057 21.5906 14.776 21.5906 15.6057C21.5906 16.4354 20.9203 17.1057 20.0906 17.1057C19.2609 17.1057 18.5906 16.4354 18.5906 15.6057C18.5906 14.776 19.2609 14.1057 20.0906 14.1057ZM5.24061 14.6822C4.99218 14.8182 4.74374 14.9588 4.49061 15.1041L4.91249 15.8354C5.15155 15.6947 5.3953 15.5635 5.63905 15.4322L5.24061 14.6822ZM3.75468 15.5588C3.49171 15.7088 3.23764 15.9104 3.01874 16.0557L3.52968 16.7307C3.76264 16.5619 4.01343 16.3885 4.21405 16.2666L3.75468 15.5588ZM2.35311 16.6182C2.12811 16.8244 1.90639 17.0635 1.73436 17.2651L2.37655 17.8135C2.55702 17.5932 2.71405 17.4291 2.92499 17.2416L2.35311 16.6182ZM12.5625 16.6791L12.6375 17.5182C12.8812 17.476 13.125 17.5041 13.3687 17.5416L13.5141 16.7119C13.2047 16.6651 12.8766 16.6322 12.5625 16.6791ZM10.8187 17.1479L11.1375 17.9307C11.3812 17.8229 11.6344 17.7385 11.8922 17.6588C11.8031 17.3916 11.7375 17.1197 11.6672 16.8479C11.3719 16.9322 11.0766 17.0447 10.8187 17.1479ZM14.4516 17.1057L13.9734 17.7994C14.1703 17.9447 14.3625 18.0994 14.5172 18.2916L15.1547 17.7385C14.9156 17.4947 14.7328 17.2651 14.4516 17.1057ZM10.0219 17.5276C9.76405 17.6588 9.51561 17.8088 9.26718 17.9541L9.69374 18.6807C9.93749 18.5494 10.1766 18.3947 10.4156 18.2682L10.0219 17.5276ZM1.21921 18.0432C1.07764 18.3479 0.9628 18.676 0.909363 18.9666L1.73905 19.1119C1.78968 18.8447 1.86233 18.6526 1.96874 18.4229C1.71139 18.3104 1.46577 18.1744 1.21921 18.0432ZM8.53593 18.4088C8.29686 18.5635 8.06249 18.7182 7.82811 18.8776L8.29686 19.5807C8.53124 19.426 8.76093 19.2666 8.9953 19.1119L8.53593 18.4088ZM15.6937 18.4651L14.9859 18.9244C15.1359 19.1494 15.2812 19.3838 15.4172 19.6229L16.1484 19.201C15.9844 18.9385 15.8672 18.7041 15.6937 18.4651ZM7.12968 19.3557C6.8953 19.5104 6.66093 19.6604 6.43124 19.8244L6.89999 20.5276C7.12499 20.3635 7.36405 20.2088 7.60311 20.0494L7.12968 19.3557ZM1.74843 19.801C1.47702 19.8572 1.20327 19.9041 0.930457 19.9557C0.979675 20.2838 1.11139 20.6026 1.23046 20.8557L1.99218 20.4901C1.89046 20.2557 1.79389 20.0119 1.74843 19.801ZM16.5656 19.9322L15.8344 20.3541C15.9797 20.6072 16.1484 20.8791 16.2844 21.0947L16.9922 20.6401C16.8328 20.3916 16.6969 20.1572 16.5656 19.9322ZM5.73749 20.2838C5.50311 20.4291 5.27343 20.5697 5.02968 20.7057L5.44686 21.4416C5.6953 21.2963 5.94374 21.151 6.1828 20.9963L5.73749 20.2838ZM2.3953 21.0479L1.81874 21.6666C2.07936 21.9151 2.40093 22.0791 2.75155 22.1541L2.93905 21.3338C2.73093 21.2916 2.53639 21.1885 2.3953 21.0479ZM4.31718 21.0619C4.08233 21.1697 3.83858 21.2541 3.58593 21.3057L3.77811 22.1307C4.07905 22.0697 4.36218 21.9572 4.6453 21.8401L4.31718 21.0619ZM17.4562 21.2869L16.8047 21.8166C17.0062 22.0651 17.2547 22.3041 17.4703 22.4729L17.9906 21.8072C17.7844 21.6479 17.6062 21.4557 17.4562 21.2869ZM18.5859 22.1072L18.375 22.9276C18.7453 23.0026 19.0219 23.026 19.3687 22.9885L19.2656 22.1494C19.0359 22.1869 18.8109 22.1635 18.5859 22.1072Z" fill="#111111"/>
        </symbol>
        <symbol id="parcel" viewBox="0 0 20 21" fill="none" xmlns="http://www.w3.org/2000/svg">
            <path d="M5 12.9964H7C7.2652 12.9964 7.5196 12.8911 7.7071 12.7035C7.8946 12.516 8 12.2616 8 11.9964C8 11.7312 7.8946 11.4769 7.7071 11.2893C7.5196 11.1018 7.2652 10.9964 7 10.9964H5C4.7348 10.9964 4.4804 11.1018 4.2929 11.2893C4.1054 11.4769 4 11.7312 4 11.9964C4 12.2616 4.1054 12.516 4.2929 12.7035C4.4804 12.8911 4.7348 12.9964 5 12.9964ZM11 14.9964H5C4.7348 14.9964 4.4804 15.1018 4.2929 15.2893C4.1054 15.4769 4 15.7312 4 15.9964C4 16.2616 4.1054 16.516 4.2929 16.7035C4.4804 16.8911 4.7348 16.9964 5 16.9964H11C11.2652 16.9964 11.5196 16.8911 11.7071 16.7035C11.8946 16.516 12 16.2616 12 15.9964C12 15.7312 11.8946 15.4769 11.7071 15.2893C11.5196 15.1018 11.2652 14.9964 11 14.9964ZM17 0.996429H3C2.2044 0.996429 1.44129 1.3125 0.87868 1.87511C0.31607 2.4377 0 3.2008 0 3.9964V17.9964C0 18.7921 0.31607 19.5551 0.87868 20.1178C1.44129 20.6804 2.2044 20.9964 3 20.9964H17C17.7956 20.9964 18.5587 20.6804 19.1213 20.1178C19.6839 19.5551 20 18.7921 20 17.9964V3.9964C20 3.2008 19.6839 2.4377 19.1213 1.87511C18.5587 1.3125 17.7956 0.996429 17 0.996429ZM12 2.9964V6.2864L10.49 5.4464C10.338 5.3587 10.1655 5.3125 9.99 5.3125C9.8145 5.3125 9.642 5.3587 9.49 5.4464L8 6.2864V2.9964H12ZM18 17.9964C18 18.2616 17.8946 18.516 17.7071 18.7035C17.5196 18.8911 17.2652 18.9964 17 18.9964H3C2.7348 18.9964 2.4804 18.8911 2.2929 18.7035C2.1054 18.516 2 18.2616 2 17.9964V3.9964C2 3.7312 2.1054 3.4769 2.2929 3.2893C2.4804 3.1018 2.7348 2.9964 3 2.9964H6V7.9964C6.0011 8.1709 6.0478 8.3421 6.1355 8.493C6.2232 8.6439 6.3489 8.7692 6.5 8.8564C6.652 8.9442 6.8245 8.9904 7 8.9904C7.1755 8.9904 7.348 8.9442 7.5 8.8564L10 7.4664L12.51 8.8664C12.6595 8.9511 12.8282 8.9959 13 8.9964C13.2652 8.9964 13.5196 8.8911 13.7071 8.7035C13.8946 8.516 14 8.2616 14 7.9964V2.9964H17C17.2652 2.9964 17.5196 3.1018 17.7071 3.2893C17.8946 3.4769 18 3.7312 18 3.9964V17.9964Z" fill="#111111"/>
        </symbol>
        <symbol id="weight" viewBox="0 0 20 19" fill="none" xmlns="http://www.w3.org/2000/svg">
            <path d="M10 0.996429C11.0609 0.996429 12.0783 1.41786 12.8284 2.168C13.5786 2.91815 14 3.93556 14 4.99643C14 5.72643 13.81 6.40643 13.46 6.99643H16C16.95 6.99643 17.75 7.6664 17.95 8.5564C19.96 16.5664 20 16.7764 20 16.9964C20 17.5269 19.7893 18.0356 19.4142 18.4106C19.0391 18.7857 18.5304 18.9964 18 18.9964H2C1.46957 18.9964 0.96086 18.7857 0.58579 18.4106C0.21071 18.0356 0 17.5269 0 16.9964C0 16.7764 0.0400002 16.5664 2.05 8.5564C2.25 7.6664 3.05 6.99643 4 6.99643H6.54C6.18253 6.39083 5.99591 5.69965 6 4.99643C6 3.93556 6.42143 2.91815 7.17157 2.168C7.92172 1.41786 8.9391 0.996429 10 0.996429ZM10 2.99643C9.4696 2.99643 8.9609 3.20714 8.5858 3.58222C8.2107 3.95729 8 4.466 8 4.99643C8 5.52686 8.2107 6.03557 8.5858 6.41064C8.9609 6.78572 9.4696 6.99643 10 6.99643C10.5304 6.99643 11.0391 6.78572 11.4142 6.41064C11.7893 6.03557 12 5.52686 12 4.99643C12 4.466 11.7893 3.95729 11.4142 3.58222C11.0391 3.20714 10.5304 2.99643 10 2.99643Z" fill="#111111"/>
        </symbol>
        <symbol id="plus" viewBox="0 0 32 32" fill="none" xmlns="http://www.w3.org/2000/svg">
            <path d="M2 16.0002H30" stroke="white" stroke-width="3" stroke-linecap="round" stroke-linejoin="round"/>
            <path d="M16 30.0002V2.0002" stroke="white" stroke-width="3" stroke-linecap="round" stroke-linejoin="round"/>
        </symbol>
        <symbol id="minus" viewBox="0 0 32 4" fill="none" xmlns="http://www.w3.org/2000/svg">
            <path d="M2 2.0001H30" stroke="white" stroke-width="3" stroke-linecap="round" stroke-linejoin="round"/>
        </symbol>
        <symbol id="phone" viewBox="0 0 20 19" fill="none" xmlns="http://www.w3.org/2000/svg">
            <path d="M18.2288 18.895C15.9371 18.895 13.7034 18.4156 11.5275 17.457C9.351 16.499 7.4235 15.2323 5.74507 13.657C4.06593 12.0823 2.7158 10.274 1.69468 8.232C0.67284 6.19063 0.16193 4.09496 0.16193 1.94496C0.16193 1.64496 0.26852 1.39496 0.48169 1.19496C0.69487 0.994959 0.96135 0.894958 1.28111 0.894958H5.59797C5.84668 0.894958 6.0687 0.969958 6.2642 1.11996C6.4596 1.26996 6.575 1.46163 6.6106 1.69496L7.3034 5.19496C7.3389 5.42829 7.3347 5.64062 7.2906 5.83196C7.2458 6.02396 7.1435 6.19496 6.9836 6.34496L4.42549 8.795C5.17162 9.995 6.1043 11.12 7.2235 12.17C8.3426 13.22 9.5773 14.1283 10.9274 14.895L13.4323 12.545C13.5922 12.395 13.8011 12.2823 14.059 12.207C14.3163 12.1323 14.5692 12.1116 14.8179 12.145L18.4953 12.845C18.744 12.895 18.9483 13.0073 19.1081 13.182C19.268 13.3573 19.348 13.5616 19.348 13.795V17.845C19.348 18.145 19.2414 18.395 19.0282 18.595C18.815 18.795 18.5486 18.895 18.2288 18.895Z" fill="white"/>
        </symbol>
        <symbol id="calendar" viewBox="0 0 25 25" fill="none" xmlns="http://www.w3.org/2000/svg">
            <path d="M12.8245 14.8964C12.5411 14.8964 12.3038 14.8004 12.1125 14.6084C11.9205 14.4171 11.8245 14.1798 11.8245 13.8964C11.8245 13.6131 11.9205 13.3754 12.1125 13.1834C12.3038 12.9921 12.5411 12.8964 12.8245 12.8964C13.1078 12.8964 13.3455 12.9921 13.5375 13.1834C13.7288 13.3754 13.8245 13.6131 13.8245 13.8964C13.8245 14.1798 13.7288 14.4171 13.5375 14.6084C13.3455 14.8004 13.1078 14.8964 12.8245 14.8964ZM8.82446 14.8964C8.54113 14.8964 8.30346 14.8004 8.11146 14.6084C7.92013 14.4171 7.82446 14.1798 7.82446 13.8964C7.82446 13.6131 7.92013 13.3754 8.11146 13.1834C8.30346 12.9921 8.54113 12.8964 8.82446 12.8964C9.1078 12.8964 9.34546 12.9921 9.53746 13.1834C9.7288 13.3754 9.82446 13.6131 9.82446 13.8964C9.82446 14.1798 9.7288 14.4171 9.53746 14.6084C9.34546 14.8004 9.1078 14.8964 8.82446 14.8964ZM16.8245 14.8964C16.5411 14.8964 16.3038 14.8004 16.1125 14.6084C15.9205 14.4171 15.8245 14.1798 15.8245 13.8964C15.8245 13.6131 15.9205 13.3754 16.1125 13.1834C16.3038 12.9921 16.5411 12.8964 16.8245 12.8964C17.1078 12.8964 17.3451 12.9921 17.5365 13.1834C17.7285 13.3754 17.8245 13.6131 17.8245 13.8964C17.8245 14.1798 17.7285 14.4171 17.5365 14.6084C17.3451 14.8004 17.1078 14.8964 16.8245 14.8964ZM12.8245 18.8964C12.5411 18.8964 12.3038 18.8004 12.1125 18.6084C11.9205 18.4171 11.8245 18.1798 11.8245 17.8964C11.8245 17.6131 11.9205 17.3758 12.1125 17.1844C12.3038 16.9924 12.5411 16.8964 12.8245 16.8964C13.1078 16.8964 13.3455 16.9924 13.5375 17.1844C13.7288 17.3758 13.8245 17.6131 13.8245 17.8964C13.8245 18.1798 13.7288 18.4171 13.5375 18.6084C13.3455 18.8004 13.1078 18.8964 12.8245 18.8964ZM8.82446 18.8964C8.54113 18.8964 8.30346 18.8004 8.11146 18.6084C7.92013 18.4171 7.82446 18.1798 7.82446 17.8964C7.82446 17.6131 7.92013 17.3758 8.11146 17.1844C8.30346 16.9924 8.54113 16.8964 8.82446 16.8964C9.1078 16.8964 9.34546 16.9924 9.53746 17.1844C9.7288 17.3758 9.82446 17.6131 9.82446 17.8964C9.82446 18.1798 9.7288 18.4171 9.53746 18.6084C9.34546 18.8004 9.1078 18.8964 8.82446 18.8964ZM16.8245 18.8964C16.5411 18.8964 16.3038 18.8004 16.1125 18.6084C15.9205 18.4171 15.8245 18.1798 15.8245 17.8964C15.8245 17.6131 15.9205 17.3758 16.1125 17.1844C16.3038 16.9924 16.5411 16.8964 16.8245 16.8964C17.1078 16.8964 17.3451 16.9924 17.5365 17.1844C17.7285 17.3758 17.8245 17.6131 17.8245 17.8964C17.8245 18.1798 17.7285 18.4171 17.5365 18.6084C17.3451 18.8004 17.1078 18.8964 16.8245 18.8964ZM5.82446 22.8964C5.27446 22.8964 4.80346 22.7008 4.41146 22.3094C4.02013 21.9174 3.82446 21.4464 3.82446 20.8964V6.89642C3.82446 6.34642 4.02013 5.87576 4.41146 5.48442C4.80346 5.09242 5.27446 4.89642 5.82446 4.89642H6.82446V3.89642C6.82446 3.61309 6.92013 3.37542 7.11146 3.18342C7.30346 2.99209 7.54113 2.89642 7.82446 2.89642C8.1078 2.89642 8.34546 2.99209 8.53746 3.18342C8.7288 3.37542 8.82446 3.61309 8.82446 3.89642V4.89642H16.8245V3.89642C16.8245 3.61309 16.9205 3.37542 17.1125 3.18342C17.3038 2.99209 17.5411 2.89642 17.8245 2.89642C18.1078 2.89642 18.3451 2.99209 18.5365 3.18342C18.7285 3.37542 18.8245 3.61309 18.8245 3.89642V4.89642H19.8245C20.3745 4.89642 20.8455 5.09242 21.2375 5.48442C21.6288 5.87576 21.8245 6.34642 21.8245 6.89642V20.8964C21.8245 21.4464 21.6288 21.9174 21.2375 22.3094C20.8455 22.7008 20.3745 22.8964 19.8245 22.8964H5.82446ZM5.82446 20.8964H19.8245V10.8964H5.82446V20.8964ZM5.82446 8.89642H19.8245V6.89642H5.82446V8.89642Z" fill="white"/>
        </symbol>
    </defs>
</svg>
